#!OML:ASF F:\VICON\USERDATA\INSTALL\rory3\rory3.ASF
:FULLY-SPECIFIED
:DEGREES
3193
root -3.62788 17.0919 -3.32349 24.5671 29.7202 -15.513
lowerback 22.3568 4.9264 -5.05401
upperback 7.67601 4.94023 -8.15225
thorax -3.6408 2.53601 -7.26332
lowerneck -25.2087 1.16967 -13.3793
upperneck 21.8447 7.67551 -3.08666
head 10.9989 1.93135 2.25805
rclavicle 2.54444e-014 -8.74653e-015
rhumerus 27.4247 28.0004 -72.2543
rradius 46.1675
rwrist 21.1776
rhand -30.3672 3.10983
rfingers 7.12502
rthumb -3.67206 -26.8383
lclavicle 2.54444e-014 -8.74653e-015
lhumerus 20.754 -6.69374 63.6367
lradius 43.2095
lwrist -10.1926
lhand -13.5684 28.0047
lfingers 7.12502
lthumb 12.5452 57.608
rfemur -46.2079 -10.9858 30.0282
rtibia 34.875
rfoot -16.6597 -10.9869
rtoes -4.91229
lfemur -57.1855 -5.66879 22.9038
ltibia 27.1169
lfoot -2.46465 12.5042
ltoes -29.6629
3194
root -3.65675 17.1025 -3.32853 24.1506 29.0888 -15.2241
lowerback 22.4744 4.91447 -4.89977
upperback 7.65272 4.94686 -7.97765
thorax -3.73153 2.53464 -7.16993
lowerneck -25.3537 1.25972 -13.1213
upperneck 22.0987 7.78307 -3.18945
head 11.1295 1.96356 2.20653
rclavicle -3.97569e-014 4.45278e-014
rhumerus 26.2569 27.5458 -72.701
rradius 46.3249
rwrist 20.9407
rhand -29.8062 3.91453
rfingers 7.12502
rthumb -3.13031 -26.0422
lclavicle -3.97569e-014 4.45278e-014
lhumerus 19.9985 -7.14591 64.144
lradius 43.3589
lwrist -9.95655
lhand -13.9648 26.9819
lfingers 7.12502
lthumb 12.163 56.6083
rfemur -45.8041 -10.7093 29.5528
rtibia 35.1653
rfoot -16.6124 -10.8856
rtoes -4.80318
lfemur -56.278 -5.73862 22.3752
ltibia 26.9426
lfoot -2.29538 12.5933
ltoes -29.8778
3195
root -3.67773 17.1037 -3.349 24.2842 28.4301 -14.6219
lowerback 22.2801 4.78471 -4.73886
upperback 7.54787 4.82275 -7.97462
thorax -3.74912 2.47389 -7.2128
lowerneck -25.5216 1.42258 -12.7573
upperneck 22.3427 7.95419 -3.30357
head 11.2613 2.03145 2.14488
rclavicle 3.33958e-014 1.59028e-014
rhumerus 25.0744 27.1568 -73.1172
rradius 46.5926
rwrist 20.7088
rhand -29.6641 4.06701
rfingers 7.12502
rthumb -2.9931 -25.8917
lclavicle 3.33958e-014 1.59028e-014
lhumerus 19.2671 -7.75933 64.5352
lradius 43.6097
lwrist -9.35948
lhand -14.1848 26.3151
lfingers 7.12502
lthumb 11.9509 55.954
rfemur -45.9732 -10.7074 28.9625
rtibia 35.4613
rfoot -16.3057 -10.6956
rtoes -4.78762
lfemur -55.8714 -5.75342 21.7079
ltibia 26.8178
lfoot -2.03229 12.8206
ltoes -29.7338
3196
root -3.69959 17.1103 -3.36603 24.2478 27.854 -14.0755
lowerback 22.2177 4.68655 -4.46527
upperback 7.48874 4.75321 -7.98573
thorax -3.76761 2.44209 -7.36048
lowerneck -25.7212 1.48103 -12.2216
upperneck 22.7212 7.93432 -3.41225
head 11.4661 2.01872 2.03246
rclavicle 4.13472e-014 -5.64548e-014
rhumerus 23.7725 26.4917 -73.7789
rradius 46.7853
rwrist 20.9037
rhand -30.0899 3.53027
rfingers 7.12502
rthumb -3.40425 -26.4223
lclavicle 4.13472e-014 -5.64548e-014
lhumerus 18.7014 -8.48496 64.8899
lradius 43.9142
lwrist -9.17944
lhand -13.6194 27.1065
lfingers 7.12502
lthumb 12.4961 56.7129
rfemur -45.9211 -10.7758 28.4255
rtibia 35.7285
rfoot -16.1716 -10.4301
rtoes -4.95602
lfemur -55.3728 -5.92224 21.136
ltibia 26.7116
lfoot -1.90716 13.106
ltoes -29.4807
3197
root -3.72039 17.1045 -3.38384 23.8809 27.1261 -14.0016
lowerback 22.2979 4.65741 -3.96928
upperback 7.39292 4.80222 -7.87591
thorax -3.88184 2.46381 -7.54609
lowerneck -25.6512 1.4492 -12.0037
upperneck 22.8199 7.77232 -3.30784
head 11.497 1.97292 2.01228
rclavicle -5.56597e-014 9.30312e-014
rhumerus 22.604 25.9875 -74.2208
rradius 46.9145
rwrist 21.0524
rhand -30.2908 3.24191
rfingers 7.12502
rthumb -3.59829 -26.7075
lclavicle -5.56597e-014 9.30312e-014
lhumerus 18.0019 -8.93447 65.4308
lradius 44.1417
lwrist -9.61533
lhand -13.317 27.1749
lfingers 7.12502
lthumb 12.7876 56.7632
rfemur -45.7438 -10.4382 28.1644
rtibia 36.0043
rfoot -16.0618 -10.2708
rtoes -5.16363
lfemur -54.6243 -5.84079 20.8659
ltibia 26.6631
lfoot -1.77106 13.3776
ltoes -29.5776
3198
root -3.74383 17.1003 -3.39673 23.4945 26.3135 -13.8673
lowerback 22.4179 4.59241 -3.71612
upperback 7.29078 4.75429 -7.70621
thorax -4.05735 2.43281 -7.50672
lowerneck -25.2809 1.42243 -12.2901
upperneck 22.5056 7.6223 -2.88498
head 11.2775 1.96923 2.17304
rclavicle 9.22361e-014 -5.08889e-014
rhumerus 21.6894 26.0046 -74.2784
rradius 47.0916
rwrist 20.7771
rhand -30.1218 3.47674
rfingers 7.12502
rthumb -3.43506 -26.4753
lclavicle 9.22361e-014 -5.08889e-014
lhumerus 17.1192 -9.14236 66.0238
lradius 44.3488
lwrist -9.83738
lhand -13.4113 26.9389
lfingers 7.12502
lthumb 12.6967 56.5329
rfemur -45.4774 -9.90735 27.7521
rtibia 36.2395
rfoot -15.9707 -10.2048
rtoes -5.43421
lfemur -53.781 -5.57762 20.3664
ltibia 26.6419
lfoot -1.60622 13.4435
ltoes -29.666
3199
root -3.76852 17.0984 -3.40305 23.2256 25.4038 -13.6657
lowerback 22.3003 4.58235 -3.75624
upperback 7.23311 4.74546 -7.44785
thorax -4.09198 2.41936 -7.18303
lowerneck -25.0525 1.4036 -12.5497
upperneck 22.318 7.54776 -2.58661
head 11.1406 1.97178 2.30077
rclavicle 1.01778e-013 -1.65389e-013
rhumerus 20.857 25.9992 -74.2598
rradius 47.2516
rwrist 20.561
rhand -29.7768 3.98496
rfingers 7.12502
rthumb -3.10187 -25.9722
lclavicle 1.01778e-013 -1.65389e-013
lhumerus 16.2336 -9.35791 66.7138
lradius 44.5341
lwrist -9.64122
lhand -13.4308 27.674
lfingers 7.12502
lthumb 12.6779 57.2692
rfemur -45.3073 -9.32638 27.2953
rtibia 36.473
rfoot -15.9279 -10.171
rtoes -5.52974
lfemur -52.9531 -5.30141 19.8638
ltibia 26.6605
lfoot -1.49906 13.649
ltoes -29.4695
3200
root -3.79165 17.0975 -3.40857 23.0091 24.4959 -13.4369
lowerback 22.141 4.51771 -3.94659
upperback 7.23521 4.65043 -7.08183
thorax -4.06918 2.36258 -6.62563
lowerneck -25.1278 1.44468 -12.5628
upperneck 22.2431 7.64068 -2.68963
head 11.1274 2.00139 2.27915
rclavicle 2.06736e-014 -3.18055e-015
rhumerus 20.2775 26.1075 -74.1725
rradius 47.3103
rwrist 20.5206
rhand -29.5901 4.48181
rfingers 7.12502
rthumb -2.92158 -25.4779
lclavicle 2.06736e-014 -3.18055e-015
lhumerus 15.4433 -9.19241 67.6242
lradius 44.5841
lwrist -9.52529
lhand -13.4807 28.1436
lfingers 7.12502
lthumb 12.6298 57.7418
rfemur -45.179 -8.82849 26.8573
rtibia 36.682
rfoot -15.8243 -10.0409
rtoes -5.63725
lfemur -52.1793 -5.09562 19.4065
ltibia 26.6967
lfoot -1.44039 14.0567
ltoes -29.2919
